<svg id="visual" viewBox="0 0 900 600" width="900" height="600" xmlns="http://www.w3.org/2000/svg" xmlns:xlink="http://www.w3.org/1999/xlink" version="1.1"><path d="M0 388L21.5 408.2C43 428.3 86 468.7 128.8 467.7C171.7 466.7 214.3 424.3 257.2 423.3C300 422.3 343 462.7 385.8 484.3C428.7 506 471.3 509 514.2 499C557 489 600 466 642.8 461C685.7 456 728.3 469 771.2 460C814 451 857 420 878.5 404.5L900 389L900 601L878.5 601C857 601 814 601 771.2 601C728.3 601 685.7 601 642.8 601C600 601 557 601 514.2 601C471.3 601 428.7 601 385.8 601C343 601 300 601 257.2 601C214.3 601 171.7 601 128.8 601C86 601 43 601 21.5 601L0 601Z" fill="#3e388b" stroke-linecap="round" stroke-linejoin="miter"></path></svg>