<svg fill="currentColor" xmlns="http://www.w3.org/2000/svg" viewBox="0 0 31.89 22.09"><path d="M2.49 6.03h8.78a.94.94 0 0 0 0-1.87H2.49a.94.94 0 0 0 0 1.87ZM.93 9.96h8.63a.94.94 0 0 0 0-1.87H.93a.94.94 0 0 0 0 1.87ZM7.26 12.03H2.49a.94.94 0 0 0 0 1.87h4.77a.94.94 0 0 0 0-1.87Z"/><path d="M31.66 18.7a.88.88 0 0 0 .23-.6v-6.41a.66.66 0 0 0 0-.15 1.18 1.18 0 0 0-.26-.72l-1.7-2.13a.64.64 0 0 1 0-.07l-3.11-6.13-.07-.08a.79.79 0 0 0-.12-.15.59.59 0 0 0-.18-.13h-.08a.74.74 0 0 0-.25 0h-4.58V.96a.88.88 0 0 0-.9-1H3.74a.94.94 0 0 0 0 1.87h15.85v7.2a.89.89 0 0 0 .45.79.91.91 0 0 0 .51.16h8c.48.61 1 1.21 1.43 1.82v5.34h-2a4 4 0 0 0-7.74 0h-6a4 4 0 0 0-7.74 0H3.71a.94.94 0 0 0 0 1.87h2.75a4 4 0 0 0 7.73 0h6a4 4 0 0 0 7.74.02h3a.88.88 0 0 0 .6-.23l.06-.05ZM25.42 3.89c.71 1.41 1.43 2.82 2.14 4.24h-6V3.89Zm-15.1 16.19a2 2 0 1 1 2-2 2 2 0 0 1-2 2Zm13.79 0a2 2 0 1 1 2-2 2 2 0 0 1-2 2Z"/>
<style>
        svg { fill: #000; }
        @media (prefers-color-scheme: dark) {
            svg { fill: #FFF; }
        }
    </style>
</svg>