<svg id="visual" viewBox="0 0 900 600" width="900" height="600" xmlns="http://www.w3.org/2000/svg" xmlns:xlink="http://www.w3.org/1999/xlink" version="1.1"><path d="M0 96L21.5 93C43 90 86 84 128.8 98.7C171.7 113.3 214.3 148.7 257.2 154.3C300 160 343 136 385.8 128.5C428.7 121 471.3 130 514.2 139C557 148 600 157 642.8 149C685.7 141 728.3 116 771.2 106.7C814 97.3 857 103.7 878.5 106.8L900 110L900 0L878.5 0C857 0 814 0 771.2 0C728.3 0 685.7 0 642.8 0C600 0 557 0 514.2 0C471.3 0 428.7 0 385.8 0C343 0 300 0 257.2 0C214.3 0 171.7 0 128.8 0C86 0 43 0 21.5 0L0 0Z" fill="#3e388b" stroke-linecap="round" stroke-linejoin="miter"></path></svg>